<?xml version="1.0" encoding="UTF-8" standalone="no"?>
<!-- Created with Inkscape (http://www.inkscape.org/) -->

<svg
   width="1023.9999"
   height="1024.0001"
   viewBox="0 0 270.93332 270.93335"
   version="1.1"
   id="svg219"
   inkscape:version="1.1.1 (3bf5ae0d25, 2021-09-20, custom)"
   sodipodi:docname="pygeoid_logo_red_green.svg"
   inkscape:export-filename="/home/ilya/Pictures/pygeoid_logo/pygeoid_logo_red_green.png"
   inkscape:export-xdpi="96"
   inkscape:export-ydpi="96"
   xmlns:inkscape="http://www.inkscape.org/namespaces/inkscape"
   xmlns:sodipodi="http://sodipodi.sourceforge.net/DTD/sodipodi-0.dtd"
   xmlns:xlink="http://www.w3.org/1999/xlink"
   xmlns="http://www.w3.org/2000/svg"
   xmlns:svg="http://www.w3.org/2000/svg">
  <sodipodi:namedview
     id="namedview221"
     pagecolor="#ffffff"
     bordercolor="#666666"
     borderopacity="1.0"
     inkscape:pageshadow="2"
     inkscape:pageopacity="0.0"
     inkscape:pagecheckerboard="0"
     inkscape:document-units="mm"
     showgrid="false"
     inkscape:snap-smooth-nodes="true"
     inkscape:snap-intersection-paths="true"
     inkscape:object-paths="true"
     inkscape:snap-midpoints="true"
     inkscape:snap-object-midpoints="true"
     inkscape:snap-center="true"
     inkscape:zoom="0.4894542"
     inkscape:cx="187.96447"
     inkscape:cy="300.33454"
     inkscape:window-width="1094"
     inkscape:window-height="1032"
     inkscape:window-x="0"
     inkscape:window-y="0"
     inkscape:window-maximized="1"
     inkscape:current-layer="layer1"
     fit-margin-top="0"
     fit-margin-left="0"
     fit-margin-right="0"
     fit-margin-bottom="0"
     units="px" />
  <defs
     id="defs216">
    <linearGradient
       inkscape:collect="always"
       id="linearGradient1209">
      <stop
         style="stop-color:#00ff00;stop-opacity:0;"
         offset="0"
         id="stop1207" />
      <stop
         style="stop-color:#00ff00;stop-opacity:1;"
         offset="1"
         id="stop1205" />
    </linearGradient>
    <linearGradient
       inkscape:collect="always"
       id="linearGradient1113">
      <stop
         style="stop-color:#ff0000;stop-opacity:1;"
         offset="0"
         id="stop1109" />
      <stop
         style="stop-color:#ff0000;stop-opacity:0;"
         offset="1"
         id="stop1111" />
    </linearGradient>
    <linearGradient
       id="linearGradient13403"
       inkscape:swatch="gradient">
      <stop
         style="stop-color:#cc0000;stop-opacity:1;"
         offset="0"
         id="stop13399" />
      <stop
         style="stop-color:#cc0000;stop-opacity:0;"
         offset="1"
         id="stop13401" />
    </linearGradient>
    <linearGradient
       id="linearGradient13195"
       inkscape:swatch="gradient">
      <stop
         style="stop-color:#00cc00;stop-opacity:0;"
         offset="0"
         id="stop13193" />
      <stop
         style="stop-color:#00cc00;stop-opacity:1;"
         offset="1"
         id="stop13191" />
    </linearGradient>
    <linearGradient
       inkscape:collect="always"
       xlink:href="#linearGradient1113"
       id="linearGradient1115"
       x1="-9.7143688"
       y1="54.277985"
       x2="94.571518"
       y2="54.277985"
       gradientUnits="userSpaceOnUse"
       gradientTransform="matrix(2.9783734,0,0,3.0313572,80.17353,28.141323)" />
    <linearGradient
       inkscape:collect="always"
       xlink:href="#linearGradient1209"
       id="linearGradient1211"
       x1="109.98535"
       y1="74.581902"
       x2="200.95219"
       y2="74.581902"
       gradientUnits="userSpaceOnUse"
       gradientTransform="matrix(2.9783734,0,0,3.0313572,-256.57243,-33.401288)" />
  </defs>
  <g
     inkscape:label="Layer 1"
     inkscape:groupmode="layer"
     id="layer1"
     transform="translate(-71.004955,-57.216462)">
    <path
       style="mix-blend-mode:screen;fill:url(#linearGradient1211);fill-opacity:1;stroke:none;stroke-width:39.8791;stroke-linecap:round;stroke-miterlimit:4;stroke-dasharray:none;stroke-dashoffset:20;stroke-opacity:1"
       d="m 213.24746,327.82553 c -24.55743,-0.16006 -49.5335,-5.54829 -71.34233,-17.17443 -21.36393,-13.60509 -35.08572,-35.82182 -51.239462,-54.88357 -7.668061,-10.93207 -15.733973,-22.26641 -19.605352,-35.18854 -0.216229,-16.62702 0.24244,-33.45221 0.661289,-49.88918 4.827168,-20.93039 17.712148,-39.00803 31.242815,-55.02338 13.58245,-14.68552 25.59763,-32.492369 45.34132,-39.080751 19.61323,-9.118004 39.51505,-21.241701 61.96803,-19.125817 15.0873,0.959815 29.17254,7.096759 43.76177,10.641576 17.21292,4.903029 32.08462,15.310646 46.45762,25.701068 15.44361,12.083994 22.76127,30.958534 32.93661,47.213204 13.89137,22.33976 9.49979,51.56066 -4.00284,72.93531 -7.37198,11.97604 -17.69535,22.04715 -21.72009,35.98088 -7.47536,20.20948 -14.08407,42.82762 -32.64294,55.58387 -17.21407,14.25944 -39.16168,24.6259 -61.81644,22.30976 z"
       id="path2328-1-6"
       sodipodi:nodetypes="ccccccccccccccc" />
    <path
       style="mix-blend-mode:screen;fill:url(#linearGradient1115);fill-opacity:1;stroke:none;stroke-width:39.8791;stroke-linecap:round;stroke-miterlimit:4;stroke-dasharray:none;stroke-dashoffset:20;stroke-opacity:1"
       d="m 213.24746,327.8255 c -24.55743,-0.16006 -49.53347,-5.5483 -71.34231,-17.17446 -21.36395,-13.60503 -35.08574,-35.82179 -51.239485,-54.88351 -7.668064,-10.93207 -15.733964,-22.26638 -19.605349,-35.18854 -0.216229,-16.62702 0.242291,-33.45224 0.661307,-49.88918 4.827165,-20.93042 17.712151,-39.008 31.242807,-55.02335 13.58245,-14.68555 25.59762,-32.492368 45.34131,-39.08075 19.61344,-9.118004 39.51505,-21.241702 61.96803,-19.125821 15.0873,0.959819 29.17254,7.096762 43.7618,10.641579 17.21292,4.90303 32.08459,15.310646 46.45759,25.701068 15.44364,12.083994 22.7613,30.958534 32.93661,47.213174 13.89137,22.33979 9.49979,51.5607 -4.00281,72.93528 -7.37198,11.97604 -17.69535,22.04718 -21.72033,35.98085 -7.47515,20.20951 -14.08407,42.82768 -32.6427,55.5839 -17.2141,14.25944 -39.16171,24.6259 -61.81647,22.30976 z"
       id="path2328-3"
       sodipodi:nodetypes="ccccccccccccccc" />
    <path
       d="m 224.82726,94.465694 7.36686,1.651665 5.95847,2.175211 4.81928,2.49305 3.66819,2.66759 2.77409,2.82341 2.03905,2.81716 1.30441,2.73613 0.80226,2.49305 0.34903,2.14405 0.1659,1.68907 -0.0989,1.07201 v 44.37662 l -0.41644,5.22918 -1.05324,4.58102 -1.72085,3.83309 -2.10645,3.14748 -2.44956,2.56162 -2.67604,2.07552 -2.87214,1.59556 -2.87189,1.16553 -2.67607,0.84763 -2.44954,0.54846 -2.10666,0.35528 -1.72067,0.16824 H 180.087 l -5.60944,0.41757 -4.81925,1.14058 -4.08466,1.85109 -3.34959,2.23754 -2.71282,2.66759 -2.20447,2.88574 -1.62283,3.02283 -1.21867,3.04779 -0.8267,2.91686 -0.56941,2.6676 -0.32473,2.23753 -0.1522,1.75137 v 25.42305 h -18.21808 l -1.71474,-0.26797 -2.30252,-0.57965 -2.57802,-0.97228 -2.87211,-1.49586 -2.93319,-2.16896 -2.93337,-2.99168 -2.87192,-3.83309 -2.61478,-4.9051 -2.30252,-6.06441 -1.69023,-7.30466 -1.14512,-8.73198 -0.41641,-10.22155 0.48381,-10.12812 1.30423,-8.63224 1.978,-7.23615 2.61498,-5.90857 2.9393,-4.7368 3.25178,-3.63991 3.44765,-2.76105 3.41086,-1.97577 3.28223,-1.32756 2.93951,-0.84763 2.61477,-0.42384 1.94124,-0.0685 h 1.30441 l 0.51428,0.0685 h 66.59556 v -6.88085 h -47.68551 l -0.0673,-22.85519 -0.1522,-3.08516 0.41644,-2.82341 0.888,-2.56161 1.3716,-2.34352 2.03926,-2.13777 2.55351,-1.91967 3.08637,-1.651663 3.60693,-1.527016 4.14572,-1.227821 4.75205,-1.00344 5.19301,-0.816496 5.80529,-0.517301 6.28893,-0.324113 6.85871,-0.16824 10.36132,0.423814 z m -51.41479,16.454266 -1.88609,2.72368 -0.66742,3.40924 0.66742,3.41549 1.88609,2.81719 2.67606,1.8511 3.3496,0.74793 3.34981,-0.74793 2.67607,-1.8511 1.88608,-2.81719 0.66742,-3.41549 -0.66742,-3.40924 -1.88608,-2.72368 -2.67607,-1.81993 -3.34981,-0.74172 -3.3496,0.74172 z m 106.87746,32.81499 2.25964,0.52354 2.61477,0.97228 2.87213,1.49585 2.93317,2.23754 2.9395,2.92311 2.86579,3.89541 2.61498,4.89264 2.27188,6.07687 1.72066,7.33583 1.14513,8.63224 0.41643,10.22161 -0.50814,10.22779 -1.31667,8.63225 -1.94122,7.13642 -2.6148,5.90857 -2.93951,4.73683 -3.2822,3.7396 -3.41089,2.72368 -3.44764,2.01315 -3.25176,1.32755 -2.93933,0.74793 -2.61498,0.42381 -1.94122,0.15582 -1.30423,-0.0937 h -67.14066 v 6.81231 h 47.68551 l 0.0989,22.95489 0.15219,2.98546 -0.41641,2.82341 -0.88782,2.56161 -1.40246,2.39957 -2.03905,2.07547 -2.51693,2.0194 -3.09251,1.65164 -3.60693,1.42731 -4.14571,1.22782 -4.75206,1.07201 -5.22344,0.74793 -5.77465,0.57963 -6.31978,0.32411 -6.85851,0.0997 -10.36131,-0.32411 -8.73867,-1.17174 -7.34238,-1.65167 -5.95844,-2.07545 -4.81928,-2.49932 -3.66819,-2.76108 -2.77388,-2.82338 -2.03926,-2.81719 -1.30444,-2.7361 -0.83284,-2.49308 -0.31842,-2.07548 -0.16589,-1.66413 0.0673,-1.06579 V 221.8488 l 0.41643,-5.32892 1.08404,-4.51248 1.69005,-3.79568 2.13728,-3.18489 2.44935,-2.62395 2.68831,-2.01315 2.86597,-1.66413 2.84149,-1.16552 2.71282,-0.84763 2.45549,-0.47992 2.1005,-0.32409 2.77409,-0.26797 h 47.68554 l 5.63985,-0.4176 4.81928,-1.14058 4.08463,-1.75136 3.34959,-2.33724 2.68831,-2.66763 2.19858,-2.8857 1.65937,-3.02285 1.21866,-2.98547 0.82674,-2.89194 0.58185,-2.66135 0.31839,-2.33727 0.1522,-1.75136 v -25.42306 h 17.06685 l 1.15126,0.0685 z m -52.854,118.42068 -1.88609,2.76108 -0.6368,3.41549 0.6368,3.40928 1.88609,2.72367 2.71282,1.91343 3.34981,0.64822 3.34959,-0.64822 2.67607,-1.91343 1.88606,-2.72367 0.66766,-3.40928 -0.66766,-3.41549 -1.88606,-2.76108 -2.67607,-1.91342 -3.34959,-0.6482 -3.34981,0.6482 z"
       id="path431"
       style="stroke-width:6.17798" />
  </g>
</svg>
