<?xml version="1.0" encoding="UTF-8" standalone="no"?>
<!-- Created with Inkscape (http://www.inkscape.org/) -->

<svg
   width="1024"
   height="1024"
   viewBox="0 0 270.93335 270.93332"
   version="1.1"
   id="svg24218"
   sodipodi:docname="pygeoid_logo_red_blue.svg"
   inkscape:version="1.1.1 (3bf5ae0d25, 2021-09-20, custom)"
   inkscape:export-filename="/home/ilya/Pictures/pygeoid_logo/pygeoid_logo_red_blue.png"
   inkscape:export-xdpi="96"
   inkscape:export-ydpi="96"
   xmlns:inkscape="http://www.inkscape.org/namespaces/inkscape"
   xmlns:sodipodi="http://sodipodi.sourceforge.net/DTD/sodipodi-0.dtd"
   xmlns:xlink="http://www.w3.org/1999/xlink"
   xmlns="http://www.w3.org/2000/svg"
   xmlns:svg="http://www.w3.org/2000/svg">
  <sodipodi:namedview
     id="namedview24220"
     pagecolor="#ffffff"
     bordercolor="#666666"
     borderopacity="1.0"
     inkscape:pageshadow="2"
     inkscape:pageopacity="0.0"
     inkscape:pagecheckerboard="0"
     inkscape:document-units="mm"
     showgrid="false"
     fit-margin-top="0"
     fit-margin-left="0"
     fit-margin-right="0"
     fit-margin-bottom="0"
     inkscape:zoom="0.4894542"
     inkscape:cx="220.65395"
     inkscape:cy="588.41052"
     inkscape:window-width="1094"
     inkscape:window-height="1032"
     inkscape:window-x="0"
     inkscape:window-y="0"
     inkscape:window-maximized="1"
     inkscape:current-layer="layer1"
     units="px" />
  <defs
     id="defs24215">
    <linearGradient
       inkscape:collect="always"
       xlink:href="#linearGradient1715"
       id="linearGradient1717"
       x1="209.3045"
       y1="141.62119"
       x2="300.27139"
       y2="141.62119"
       gradientUnits="userSpaceOnUse"
       gradientTransform="matrix(2.9783712,0,0,3.0313569,-593.91093,-217.35173)" />
    <linearGradient
       inkscape:collect="always"
       id="linearGradient1715">
      <stop
         style="stop-color:#0000f0;stop-opacity:0;"
         offset="0"
         id="stop1713" />
      <stop
         style="stop-color:#0000f0;stop-opacity:1;"
         offset="1"
         id="stop1711" />
    </linearGradient>
    <linearGradient
       inkscape:collect="always"
       xlink:href="#linearGradient1689"
       id="linearGradient1691"
       x1="153.98557"
       y1="62.731167"
       x2="244.95244"
       y2="62.731167"
       gradientUnits="userSpaceOnUse"
       gradientTransform="matrix(2.9783712,0,0,3.0313569,-429.15053,21.791948)" />
    <linearGradient
       inkscape:collect="always"
       id="linearGradient1689">
      <stop
         style="stop-color:#e20000;stop-opacity:1;"
         offset="0"
         id="stop1685" />
      <stop
         style="stop-color:#e20000;stop-opacity:0;"
         offset="1"
         id="stop1687" />
    </linearGradient>
    <radialGradient
       inkscape:collect="always"
       xlink:href="#linearGradient2773"
       id="radialGradient2775"
       cx="96.22319"
       cy="106.8714"
       fx="96.22319"
       fy="106.8714"
       r="45.483425"
       gradientTransform="matrix(2.9783712,0,0,2.9783727,-121.64652,-106.35015)"
       gradientUnits="userSpaceOnUse" />
    <linearGradient
       inkscape:collect="always"
       id="linearGradient2773">
      <stop
         style="stop-color:#ffff00;stop-opacity:1;"
         offset="0"
         id="stop2769" />
      <stop
         style="stop-color:#ffff00;stop-opacity:0;"
         offset="1"
         id="stop2771" />
    </linearGradient>
  </defs>
  <g
     inkscape:label="Layer 1"
     inkscape:groupmode="layer"
     id="layer1"
     transform="translate(-29.475344,-76.485817)">
    <path
       style="mix-blend-mode:screen;fill:url(#linearGradient1717);fill-opacity:1;stroke:none;stroke-width:39.8791;stroke-linecap:round;stroke-miterlimit:4;stroke-dasharray:none;stroke-dashoffset:20;stroke-opacity:1"
       d="m 171.71795,347.09487 c -24.55745,-0.15999 -49.53347,-5.54831 -71.34236,-17.1745 -21.364008,-13.60509 -35.085848,-35.8218 -51.23957,-54.88355 -7.668054,-10.93206 -15.733951,-22.26638 -19.605327,-35.18851 -0.216228,-16.62703 0.24244,-33.45219 0.661289,-49.88914 4.827162,-20.93039 17.712125,-39.00806 31.242765,-55.0234 13.582497,-14.68553 25.597716,-32.49235 45.341503,-39.080729 19.61323,-9.118018 39.51502,-21.24171 61.96799,-19.125823 15.08731,0.959817 29.17254,7.096769 43.76177,10.641572 17.21289,4.903038 32.08458,15.31065 46.45759,25.70105 15.44359,12.08398 22.76123,30.95853 32.93654,47.21321 13.89142,22.33979 9.49979,51.56066 -4.00283,72.93529 -7.37196,11.97603 -17.69531,22.04714 -21.72005,35.98085 -7.47537,20.20947 -14.08407,42.82759 -32.64292,55.58383 -17.21405,14.25948 -39.16163,24.62602 -61.81639,22.30985 z"
       id="path2328-1-6"
       sodipodi:nodetypes="ccccccccccccccc" />
    <path
       style="mix-blend-mode:screen;fill:url(#linearGradient1691);fill-opacity:1;stroke:none;stroke-width:39.8791;stroke-linecap:round;stroke-miterlimit:4;stroke-dasharray:none;stroke-dashoffset:20;stroke-opacity:1"
       d="M 171.71795,347.09487 C 147.1605,346.93488 122.1845,341.54656 100.37563,329.92035 79.011622,316.3153 65.289742,294.09857 49.136025,275.03686 41.46797,264.1048 33.402073,252.77051 29.530697,239.84833 c -0.21623,-16.627 0.24244,-33.45221 0.661288,-49.88916 4.827164,-20.93044 17.712156,-39.008 31.242799,-55.02334 13.582481,-14.68556 25.597697,-32.49235 45.341496,-39.080731 19.61342,-9.118016 39.51499,-21.241702 61.96796,-19.125816 15.08731,0.959817 29.17254,7.09677 43.76179,10.641567 17.21289,4.903037 32.08456,15.31066 46.45757,25.70105 15.44363,12.08398 22.76125,30.95853 32.93654,47.21315 13.89142,22.33983 9.49979,51.56072 -4.0028,72.93529 -7.37194,11.97603 -17.69532,22.04716 -21.72029,35.98083 -7.47516,20.20949 -14.08407,42.82765 -32.64267,55.58385 -17.21409,14.25948 -39.16167,24.62602 -61.81643,22.30985 z"
       id="path2328-3-0"
       sodipodi:nodetypes="ccccccccccccccc" />
    <path
       style="mix-blend-mode:screen;fill:url(#radialGradient2775);fill-opacity:1;stroke:none;stroke-width:39.8791;stroke-linecap:round;stroke-miterlimit:4;stroke-dasharray:none;stroke-dashoffset:20;stroke-opacity:1"
       d="M 171.71791,347.09485 C 147.16054,346.93483 122.1845,341.54653 100.37561,329.92029 79.011622,316.31528 65.289742,294.09853 49.136007,275.03682 41.467955,264.10476 33.402079,252.77046 29.530701,239.84831 c -0.216228,-16.62698 0.24244,-33.45219 0.66129,-49.88914 4.827164,-20.93044 17.712131,-39.008 31.242785,-55.02336 13.582489,-14.68555 25.597726,-32.49233 45.341494,-39.080714 19.61343,-9.11802 39.51504,-21.241678 61.96797,-19.12579 15.08731,0.959817 29.17254,7.09676 43.76179,10.641537 17.21289,4.903038 32.08456,15.310657 46.45757,25.701047 15.44363,12.08398 22.76125,30.95854 32.93654,47.21316 13.89142,22.33981 9.49979,51.56072 -4.0028,72.93529 -7.37194,11.97601 -17.69532,22.04714 -21.72029,35.98081 -7.47516,20.20947 -14.08407,42.82763 -32.64267,55.58384 -17.21409,14.25949 -39.16167,24.62602 -61.81647,22.30986 z"
       id="path2328-3-0-3"
       sodipodi:nodetypes="ccccccccccccccc" />
    <path
       d="m 183.29775,113.73503 7.36682,1.65167 5.95852,2.17521 4.81923,2.49305 3.66821,2.66759 2.77406,2.8234 2.03907,2.81717 1.30442,2.73612 0.80226,2.49305 0.34904,2.14404 0.1657,1.68907 -0.0989,1.072 v 44.37664 l -0.41644,5.22918 -1.05329,4.58102 -1.72081,3.8331 -2.10648,3.14748 -2.44955,2.56163 -2.67605,2.07549 -2.87209,1.59557 -2.8719,1.16551 -2.67611,0.84763 -2.44952,0.54847 -2.10666,0.35526 -1.72066,0.16823 h -48.76939 l -5.60942,0.41758 -4.81919,1.14057 -4.08465,1.85109 -3.34959,2.23754 -2.71284,2.66759 -2.20446,2.88574 -1.62282,3.02284 -1.21868,3.04777 -0.82672,2.91683 -0.5694,2.66761 -0.32474,2.23752 -0.15222,1.75138 v 25.42306 H 92.84444 l -1.714735,-0.26797 -2.302539,-0.57966 -2.578034,-0.97227 -2.872113,-1.49585 -2.933168,-2.16896 -2.933396,-2.99168 -2.871925,-3.83309 -2.614803,-4.90509 -2.302518,-6.06443 -1.690243,-7.30468 -1.145143,-8.73192 -0.416393,-10.22155 0.483817,-10.12811 1.304229,-8.63223 1.978017,-7.23615 2.614991,-5.90858 2.939304,-4.7368 3.251803,-3.6399 3.447637,-2.76106 3.410866,-1.97576 3.282246,-1.32756 2.939513,-0.84762 2.614808,-0.42385 1.941264,-0.0686 h 1.304398 l 0.514284,0.0686 h 66.595783 v -6.88085 h -47.68546 l -0.0674,-22.8552 -0.15222,-3.08515 0.41643,-2.8234 0.88801,-2.56162 1.37158,-2.34351 2.03928,-2.13777 2.5535,-1.91967 3.08637,-1.65167 3.60689,-1.52701 4.14567,-1.22782 4.75205,-1.00344 5.19303,-0.8165 5.80528,-0.5173 6.28893,-0.32411 6.85872,-0.16823 10.3613,0.42381 z m -51.41478,16.45425 -1.88608,2.72368 -0.66744,3.40924 0.66744,3.4155 1.88608,2.81719 2.67604,1.85109 3.34957,0.74792 3.34983,-0.74792 2.67605,-1.85109 1.88612,-2.81719 0.66742,-3.4155 -0.66742,-3.40924 -1.88612,-2.72368 -2.67605,-1.81994 -3.34983,-0.74171 -3.34957,0.74171 z m 106.87744,32.81499 2.25962,0.52354 2.61477,0.97229 2.87213,1.49586 2.93317,2.23753 2.93947,2.92311 2.86577,3.89541 2.61499,4.89266 2.27191,6.07687 1.72066,7.33583 1.14514,8.63223 0.41642,10.22157 -0.50815,10.22779 -1.31667,8.63222 -1.9412,7.13642 -2.61485,5.90857 -2.93949,4.73684 -3.28221,3.7396 -3.41084,2.72368 -3.44764,2.01314 -3.25176,1.32755 -2.93935,0.74794 -2.61497,0.42381 -1.94122,0.15577 -1.30421,-0.0937 h -67.14065 v 6.81231 h 47.68551 l 0.0989,22.95492 0.15223,2.98545 -0.4164,2.82341 -0.88785,2.56161 -1.40245,2.39956 -2.03907,2.07547 -2.51692,2.01942 -3.0925,1.65162 -3.6069,1.42732 -4.14575,1.22782 -4.75205,1.07201 -5.22343,0.74791 -5.77465,0.57965 -6.31978,0.3241 -6.85851,0.0996 -10.36131,-0.32412 -8.73865,-1.17174 -7.34243,-1.65167 -5.95838,-2.07545 -4.81924,-2.49932 -3.6682,-2.76107 -2.77387,-2.82339 -2.03926,-2.81719 -1.30444,-2.7361 -0.83285,-2.49307 -0.31841,-2.07548 -0.1657,-1.66412 0.0674,-1.06578 v -44.37661 l 0.41642,-5.32892 1.08404,-4.51248 1.69004,-3.79568 2.13727,-3.18486 2.44937,-2.62394 2.6883,-2.01314 2.86591,-1.66412 2.8415,-1.16554 2.71282,-0.84763 2.45545,-0.47993 2.1005,-0.32407 2.77408,-0.26798 h 47.68557 l 5.63986,-0.41758 4.81925,-1.14059 4.08464,-1.75138 3.34958,-2.33723 2.68835,-2.66761 2.19857,-2.8857 1.65936,-3.02284 1.21864,-2.98545 0.82676,-2.89195 0.58185,-2.66134 0.3184,-2.33728 0.15223,-1.75138 V 162.6362 h 17.06684 l 1.15128,0.0686 z m -52.85402,118.42065 -1.88608,2.76108 -0.6368,3.41549 0.6368,3.40928 1.88608,2.72367 2.71282,1.91343 3.34984,0.64822 3.34956,-0.64822 2.67611,-1.91343 1.88602,-2.72367 0.66767,-3.40928 -0.66767,-3.41549 -1.88602,-2.76108 -2.67611,-1.91342 -3.34956,-0.6482 -3.34984,0.6482 z"
       id="path431"
       style="stroke-width:6.17797" />
  </g>
</svg>
